<!-- icon666.com - MILLIONS vector ICONS FREE --><svg version="1.1" id="Capa_1" xmlns="http://www.w3.org/2000/svg" xmlns:xlink="http://www.w3.org/1999/xlink" x="0px" y="0px" viewBox="0 0 464.211 464.211" style="enable-background:new 0 0 464.211 464.211;" xml:space="preserve"><linearGradient id="SVGID_1_" gradientUnits="userSpaceOnUse" x1="-27.8618" y1="610.8973" x2="-27.8618" y2="547.9703" gradientTransform="matrix(8 0 0 -8 455 4869.9927)"><stop offset="0" style="stop-color:#FC5C7D"></stop><stop offset="0.129" style="stop-color:#F35E85"></stop><stop offset="0.343" style="stop-color:#D9659B"></stop><stop offset="0.616" style="stop-color:#B070BF"></stop><stop offset="0.934" style="stop-color:#777FF0"></stop><stop offset="1" style="stop-color:#6A82FB"></stop></linearGradient><path style="fill: rgb(240, 235, 235);" d="M453.024,132.518L398.4,96.11h1.6v-56c0-4.418-3.582-8-8-8h-40c-4.418,0-8,3.582-8,8v19.72 l-75.56-50.4c-2.688-1.794-6.192-1.794-8.88,0L74.976,132.518c-11.4,7.431-14.618,22.697-7.187,34.097 c7.431,11.4,22.697,14.618,34.097,7.187c0.143-0.093,0.285-0.188,0.425-0.284L128,156.39v155.72h-16c0-4.418-3.582-8-8-8H40 c-4.418,0-8,3.582-8,8H0v16h32v80H0v16h32c0,4.418,3.582,8,8,8h64c4.418,0,8-3.582,8-8v-3.048l59.728,24.8 c32.563,13.287,68.961,13.687,101.808,1.12L397.12,399.87c7.319-2.783,13.208-8.398,16.336-15.576 c3.243-7.28,3.413-15.561,0.472-22.968c-2.616-6.621-7.572-12.05-13.928-15.256V156.39l25.688,17.128 c11.243,7.666,26.573,4.766,34.239-6.477c7.666-11.243,4.766-26.573-6.477-34.239C453.309,132.706,453.167,132.611,453.024,132.518 L453.024,132.518z M360,48.11h24v38.4l-24-16V48.11z M96,416.11H48v-96h48V416.11z M398.824,377.83 c-1.418,3.261-4.087,5.815-7.408,7.088l-123.584,47.12c-29.04,11.121-61.224,10.772-90.016-0.976L112,403.726V328.11h20.28 c26.527,0.031,52.686,6.209,76.424,18.048c7.842,3.904,16.48,5.941,25.24,5.952H296c6.627,0.039,11.969,5.442,11.93,12.07 c-0.032,5.554-3.872,10.361-9.282,11.618c-1.048,0.096-2.08,0.312-3.144,0.312H200v16h95.504H296c0.16,0,0.312-0.048,0.48-0.048 c6.348-0.105,12.617-1.431,18.464-3.904l66.888-28.4c3.186-1.36,6.79-1.36,9.976,0c3.311,1.407,5.91,4.098,7.2,7.456 C400.37,370.635,400.304,374.459,398.824,377.83L398.824,377.83z M384,343.006c-2.893,0.245-5.733,0.925-8.424,2.016l-51.872,22.032 c0.151-0.975,0.25-1.958,0.296-2.944c0-15.464-12.536-28-28-28h-62.056c-6.277-0.011-12.467-1.47-18.088-4.264 c-22.423-11.173-46.854-17.747-71.856-19.336v-166.8l120-80l120,80L384,343.006z M443.44,160.606 c-2.807,1.525-6.231,1.362-8.88-0.424L268.44,49.454c-2.688-1.794-6.192-1.794-8.88,0L93.44,160.206 c-3.976,2.647-9.344,1.569-11.991-2.407c-0.945-1.42-1.449-3.087-1.449-4.793c-0.005-2.893,1.44-5.597,3.848-7.2L264,25.71 l180.152,120.12c2.408,1.603,3.853,4.307,3.848,7.2c0.025,3.188-1.736,6.122-4.56,7.6L443.44,160.606z" fill="url(#SVGID_1_)"></path><g><linearGradient id="SVGID_2_" gradientUnits="userSpaceOnUse" x1="-47.875" y1="610.8973" x2="-47.875" y2="547.9703" gradientTransform="matrix(8 0 0 -8 455 4869.9927)"><stop offset="0" style="stop-color:#FC5C7D"></stop><stop offset="0.129" style="stop-color:#F35E85"></stop><stop offset="0.343" style="stop-color:#D9659B"></stop><stop offset="0.616" style="stop-color:#B070BF"></stop><stop offset="0.934" style="stop-color:#777FF0"></stop><stop offset="1" style="stop-color:#6A82FB"></stop></linearGradient><path style="fill: rgb(229, 224, 224);" d="M64,384.11h16v16H64V384.11z" fill="url(#SVGID_2_)"></path><linearGradient id="SVGID_3_" gradientUnits="userSpaceOnUse" x1="-23.875" y1="610.8973" x2="-23.875" y2="547.9703" gradientTransform="matrix(8 0 0 -8 455 4869.9927)"><stop offset="0" style="stop-color:#FC5C7D"></stop><stop offset="0.129" style="stop-color:#F35E85"></stop><stop offset="0.343" style="stop-color:#D9659B"></stop><stop offset="0.616" style="stop-color:#B070BF"></stop><stop offset="0.934" style="stop-color:#777FF0"></stop><stop offset="1" style="stop-color:#6A82FB"></stop></linearGradient><path style="fill: rgb(231, 228, 228);" d="M256,168.11v9.16c-11.999,3.732-18.7,16.484-14.968,28.483 c1.844,5.929,6.032,10.847,11.592,13.613l15.592,7.8c3.376,1.686,4.745,5.789,3.059,9.165c-1.156,2.314-3.52,3.777-6.107,3.779 h-2.336c-3.77-0.009-6.823-3.062-6.832-6.832v-1.168h-16v1.168c0.037,9.94,6.511,18.71,16,21.672v9.16h16v-9.16 c11.999-3.732,18.7-16.484,14.968-28.483c-1.844-5.929-6.032-10.847-11.592-13.613l-15.592-7.8 c-3.376-1.686-4.745-5.789-3.059-9.165c1.156-2.314,3.52-3.777,6.107-3.779h2.336c3.77,0.009,6.823,3.062,6.832,6.832v1.168h16 v-1.168c-0.037-9.94-6.511-18.71-16-21.672v-9.16L256,168.11z" fill="url(#SVGID_3_)"></path><linearGradient id="SVGID_4_" gradientUnits="userSpaceOnUse" x1="-23.875" y1="610.8973" x2="-23.875" y2="547.9703" gradientTransform="matrix(8 0 0 -8 455 4869.9927)"><stop offset="0" style="stop-color:#FC5C7D"></stop><stop offset="0.129" style="stop-color:#F35E85"></stop><stop offset="0.343" style="stop-color:#D9659B"></stop><stop offset="0.616" style="stop-color:#B070BF"></stop><stop offset="0.934" style="stop-color:#777FF0"></stop><stop offset="1" style="stop-color:#6A82FB"></stop></linearGradient><path style="fill: rgb(238, 232, 232);" d="M184,216.11c0,44.183,35.817,80,80,80s80-35.817,80-80s-35.817-80-80-80 C219.837,136.159,184.048,171.948,184,216.11z M328,216.11c0,35.346-28.654,64-64,64s-64-28.654-64-64s28.654-64,64-64 C299.33,152.15,327.96,180.781,328,216.11z" fill="url(#SVGID_4_)"></path><linearGradient id="SVGID_5_" gradientUnits="userSpaceOnUse" x1="-18.875" y1="610.8973" x2="-18.875" y2="547.9703" gradientTransform="matrix(8 0 0 -8 455 4869.9927)"><stop offset="0" style="stop-color:#FC5C7D"></stop><stop offset="0.129" style="stop-color:#F35E85"></stop><stop offset="0.343" style="stop-color:#D9659B"></stop><stop offset="0.616" style="stop-color:#B070BF"></stop><stop offset="0.934" style="stop-color:#777FF0"></stop><stop offset="1" style="stop-color:#6A82FB"></stop></linearGradient><path style="fill: rgb(231, 223, 223);" d="M296,208.11h16v16h-16V208.11z" fill="url(#SVGID_5_)"></path><linearGradient id="SVGID_6_" gradientUnits="userSpaceOnUse" x1="-28.875" y1="610.8973" x2="-28.875" y2="547.9703" gradientTransform="matrix(8 0 0 -8 455 4869.9927)"><stop offset="0" style="stop-color:#FC5C7D"></stop><stop offset="0.129" style="stop-color:#F35E85"></stop><stop offset="0.343" style="stop-color:#D9659B"></stop><stop offset="0.616" style="stop-color:#B070BF"></stop><stop offset="0.934" style="stop-color:#777FF0"></stop><stop offset="1" style="stop-color:#6A82FB"></stop></linearGradient><path style="fill: rgb(229, 224, 224);" d="M216,208.11h16v16h-16V208.11z" fill="url(#SVGID_6_)"></path></g></svg>